<?xml version="1.0" encoding="utf-8"?>
<!DOCTYPE svg PUBLIC "-//W3C//DTD SVG 1.1//EN" "http://www.w3.org/Graphics/SVG/1.1/DTD/svg11.dtd">
<svg version="1.1" id="图形" xmlns="http://www.w3.org/2000/svg" xmlns:xlink="http://www.w3.org/1999/xlink" x="0px" y="0px" width="40px" height="40px" viewBox="0 0 1024 1024" enable-background="new 0 0 1024 1024" xml:space="preserve">
  <path fill="#f90" d="M854.016 72.672l-313.344 309.248-313.344-309.248q-14.336-14.336-32.768-21.504t-37.376-7.168-36.864 7.168-32.256 21.504q-29.696 28.672-29.696 68.608t29.696 68.608l376.832 373.76q14.336 14.336 34.304 22.528t40.448 9.216 39.424-5.12 31.232-20.48l382.976-379.904q28.672-28.672 28.672-68.608t-28.672-68.608q-14.336-14.336-32.768-21.504t-37.376-7.168-36.864 7.168-32.256 21.504z" transform="translate(0, 812) scale(1, -1)"/>
</svg>
